<svg width="320" height="320" viewBox="0 0 320 320" fill="none" xmlns="http://www.w3.org/2000/svg">
<path fill-rule="evenodd" clip-rule="evenodd" d="M220 206.6H190L159.69 237.5L129.37 206.6H100C94.6957 206.6 89.6086 204.43 85.8579 200.566C82.1071 196.703 80 191.463 80 186V103.6C80 98.1365 82.1071 92.8968 85.8579 89.0336C89.6086 85.1704 94.6957 83 100 83H220C225.304 83 230.391 85.1704 234.142 89.0336C237.893 92.8968 240 98.1365 240 103.6V186C240 191.463 237.893 196.703 234.142 200.566C230.391 204.43 225.304 206.6 220 206.6ZM230 103.6C230 100.868 228.946 98.2484 227.071 96.3168C225.196 94.3852 222.652 93.3 220 93.3H100C97.3478 93.3 94.8043 94.3852 92.9289 96.3168C91.0536 98.2484 90 100.868 90 103.6V186C90 188.732 91.0536 191.352 92.9289 193.283C94.8043 195.215 97.3478 196.3 100 196.3H135L160 222.05L185 196.3H220C222.652 196.3 225.196 195.215 227.071 193.283C228.946 191.352 230 188.732 230 186V103.6ZM110 134.5H130V155.1H110V134.5ZM150 134.5H170V155.1H150V134.5ZM190 134.5H210V155.1H190V134.5Z" fill="#0A0E12"/>
</svg>
