<svg width="320" height="320" viewBox="0 0 320 320" fill="none" xmlns="http://www.w3.org/2000/svg">
<path fill-rule="evenodd" clip-rule="evenodd" d="M185.065 79.0051C177.181 76.4062 168.755 75 160 75C115.817 75 80 110.817 80 155C80 199.183 115.817 235 160 235C204.183 235 240 199.183 240 155C240 146.245 238.594 137.819 235.995 129.935C232.419 131.178 228.612 131.928 224.656 132.103C227.191 139.264 228.571 146.971 228.571 155C228.571 192.871 197.871 223.571 160 223.571C122.129 223.571 91.4286 192.871 91.4286 155C91.4286 117.129 122.129 86.4286 160 86.4286C168.029 86.4286 175.736 87.8086 182.897 90.3445C182.87 90.9406 182.857 91.5401 182.857 92.1427C182.857 114.234 200.766 132.143 222.857 132.143C227.459 132.143 231.88 131.366 235.995 129.935C234.79 126.28 233.328 122.742 231.632 119.341C228.867 120.233 225.918 120.714 222.857 120.714C207.078 120.714 194.286 107.922 194.286 92.1427C194.286 89.0817 194.767 86.1332 195.658 83.3687C192.257 81.6725 188.719 80.2115 185.064 79.0067L185.065 79.0051ZM182.857 177.857C189.169 177.857 194.286 172.74 194.286 166.429C194.286 160.117 189.169 155 182.857 155C176.545 155 171.429 160.117 171.429 166.429C171.429 172.74 176.545 177.857 182.857 177.857ZM171.429 132.143C171.429 138.455 166.312 143.571 160 143.571C153.688 143.571 148.571 138.455 148.571 132.143C148.571 125.831 153.688 120.714 160 120.714C166.312 120.714 171.429 125.831 171.429 132.143ZM137.143 177.857C143.455 177.857 148.571 172.74 148.571 166.429C148.571 160.117 143.455 155 137.143 155C130.831 155 125.714 160.117 125.714 166.429C125.714 172.74 130.831 177.857 137.143 177.857Z" fill="#0A0E12"/>
</svg>
