<svg width="320" height="320" viewBox="0 0 320 320" fill="none" xmlns="http://www.w3.org/2000/svg">
<path fill-rule="evenodd" clip-rule="evenodd" d="M210.4 124.72V101.2H218.8V126.4V134.8H210.4H206.2H185.2V126.4H202C188.56 104.56 160.84 95.32 136.48 104.56C107.92 115.48 93.64 147.4 104.56 175.12C115.48 203.68 146.56 217.96 175.12 207.04C196.12 198.64 210.4 178.48 210.4 155.8H218.8C218.8 191.08 190.24 218.8 155.8 218.8C120.52 218.8 92.8 190.24 92.8 155.8C92.8 120.52 121.36 92.8 155.8 92.8C178.48 92.8 199.48 105.4 210.4 124.72ZM158.001 193.625H153.293V183.491C139.647 182.533 135.098 174.633 134.141 165.456H140.844C141.642 171.68 143.557 177.186 153.293 178.064V155.88C142.759 153.885 136.455 150.134 136.455 140.558C136.455 132.259 143.318 125.795 153.293 125.157V117.975H158.001V125.237C167.577 126.114 173.562 131.541 174.599 140.798H168.375C167.178 134.653 163.906 131.461 158.001 130.663V150.613C169.731 152.688 175.796 156.438 175.796 166.733C175.796 175.83 168.375 182.852 158.001 183.491V193.625ZM158.001 178.064C164.385 177.426 169.173 173.117 169.173 167.211C169.173 161.306 166.699 158.513 158.001 156.678V178.064ZM153.293 130.583C146.589 131.142 142.759 134.972 142.759 139.92C142.759 144.947 144.435 147.98 153.293 149.815V130.583Z" fill="#0A0E12"/>
</svg>
