<svg width="320" height="320" viewBox="0 0 320 320" fill="none" xmlns="http://www.w3.org/2000/svg">
<path fill-rule="evenodd" clip-rule="evenodd" d="M137.572 224.972C128.043 211.598 121.541 189.137 120.748 163.333H88.2001C90.3997 192.53 110.509 216.728 137.572 224.972ZM88.2001 152.667H120.748C121.541 126.863 128.043 104.402 137.572 91.0276C110.509 99.2719 90.3997 123.47 88.2001 152.667ZM178.428 91.0276C187.957 104.402 194.459 126.863 195.252 152.667H227.8C225.6 123.47 205.491 99.2719 178.428 91.0276ZM227.8 163.333H195.252C194.459 189.137 187.957 211.598 178.428 224.972C205.491 216.728 225.6 192.53 227.8 163.333ZM158 238C202.183 238 238 202.183 238 158C238 113.817 202.183 78 158 78C113.817 78 78 113.817 78 158C78 202.183 113.817 238 158 238ZM174.733 210.058C180.18 198.385 183.968 182.015 184.58 163.333H131.42C132.032 182.015 135.82 198.385 141.267 210.058C147.632 223.696 154.297 227.333 158 227.333C161.703 227.333 168.368 223.696 174.733 210.058ZM141.267 105.942C135.82 117.615 132.032 133.985 131.42 152.667H184.58C183.968 133.985 180.18 117.615 174.733 105.942C168.368 92.3044 161.703 88.6667 158 88.6667C154.297 88.6667 147.632 92.3044 141.267 105.942Z" fill="black"/>
</svg>
