<svg width="320" height="320" viewBox="0 0 320 320" fill="none" xmlns="http://www.w3.org/2000/svg">
<path fill-rule="evenodd" clip-rule="evenodd" d="M227.425 104.097C228.86 99.0729 228.858 99.0722 228.856 99.0715L228.85 99.07L228.837 99.0662L228.8 99.0559C228.771 99.0478 228.733 99.0373 228.686 99.0246C228.593 98.9993 228.465 98.9652 228.303 98.9238C227.979 98.8411 227.521 98.729 226.941 98.5994C225.781 98.3403 224.127 98.0103 222.072 97.7042C217.97 97.0934 212.224 96.5709 205.597 96.9197C193.477 97.5575 178.158 101.135 164.725 112.654C151.292 101.135 135.973 97.5576 123.853 96.9197C117.226 96.5709 111.48 97.0934 107.378 97.7042C105.323 98.0103 103.669 98.3403 102.509 98.5994C101.928 98.729 101.471 98.8411 101.147 98.9238C100.985 98.9652 100.857 98.9993 100.764 99.0246C100.717 99.0373 100.679 99.0478 100.65 99.0559L100.613 99.0662L100.6 99.07L100.594 99.0715C100.592 99.0722 100.59 99.0729 102.025 104.097L100.59 99.0729L96.8 100.156V104.097V208.597V215.524L103.45 213.624L103.453 213.623L103.454 213.623L103.457 213.622L103.46 213.621L103.498 213.611C103.544 213.598 103.625 213.577 103.737 213.548C103.962 213.49 104.316 213.403 104.786 213.298C105.728 213.088 107.136 212.806 108.918 212.54C112.491 212.008 117.521 211.551 123.303 211.855C134.875 212.464 149.156 216.092 161.03 227.966L164.725 231.661L168.42 227.966C180.294 216.092 194.575 212.464 206.146 211.855C211.929 211.551 216.959 212.008 220.532 212.54C222.314 212.806 223.722 213.088 224.664 213.298C225.134 213.403 225.488 213.49 225.713 213.548C225.825 213.577 225.906 213.598 225.952 213.611L225.99 213.621L225.993 213.622L225.996 213.623L225.997 213.623L226 213.624L232.65 215.524V208.597V104.097V100.156L228.86 99.0729L227.425 104.097ZM108.918 108.04C108.318 108.129 107.761 108.221 107.25 108.31V202.223L107.378 202.204C111.48 201.593 117.226 201.071 123.853 201.42C134.426 201.976 147.434 204.77 159.5 213.121V121.993C147.944 111.289 134.382 107.938 123.303 107.355C117.521 107.051 112.491 107.508 108.918 108.04ZM169.95 121.993V213.121C182.016 204.77 195.024 201.976 205.597 201.42C212.224 201.071 217.97 201.593 222.072 202.204L222.2 202.223V108.31C221.689 108.221 221.132 108.129 220.532 108.04C216.959 107.508 211.929 107.051 206.146 107.355C195.068 107.938 181.506 111.289 169.95 121.993Z" fill="#0A0E12"/>
</svg>
