<svg width="320" height="320" viewBox="0 0 320 320" fill="none" xmlns="http://www.w3.org/2000/svg">
<path fill-rule="evenodd" clip-rule="evenodd" d="M94.2 103.6C89.0085 103.6 84.8 107.808 84.8 113V207C84.8 212.191 89.0085 216.4 94.2 216.4L160 216.4V207H94.2V118.776L160.001 165.777L225.8 118.778V160H235.2L235.2 113C235.2 107.808 230.991 103.6 225.8 103.6H94.2ZM102.285 113H217.716L160.001 154.225L102.285 113ZM94.2 113H94.2017L94.2 113.002V113Z" fill="#0A0E12"/>
<path fill-rule="evenodd" clip-rule="evenodd" d="M230.5 199.842L188.2 185.742L202.3 228.042L213.077 217.266L231.877 236.066L238.524 229.419L219.723 210.619L230.5 199.842Z" fill="#0A0E12"/>
</svg>
