<svg width="320" height="320" viewBox="0 0 320 320" fill="none" xmlns="http://www.w3.org/2000/svg">
<path fill-rule="evenodd" clip-rule="evenodd" d="M175.009 140.457L157.001 98.5553L138.993 140.449L93.3827 144.301L127.975 173.765L117.542 217.878L157.005 194.481L196.469 217.878L186.036 173.765L220.619 144.309L175.009 140.457ZM236.288 135.195C240.046 135.514 241.575 140.124 238.722 142.551L197.62 177.559L209.937 229.638C210.791 233.257 206.802 236.104 203.574 234.181L199.795 231.941L157.005 206.571L114.1 232.009L110.437 234.181C107.2 236.095 103.219 233.249 104.074 229.638L116.39 177.559L75.2801 142.543C72.4272 140.116 73.9476 135.506 77.7144 135.187L131.902 130.61L153.068 81.3696C154.537 77.9435 159.465 77.9435 160.934 81.3696L182.1 130.619L236.288 135.195ZM151.379 85.476V85.476Z" fill="#0A0E12"/>
</svg>
