<svg width="320" height="320" viewBox="0 0 320 320" fill="none" xmlns="http://www.w3.org/2000/svg">
<path fill-rule="evenodd" clip-rule="evenodd" d="M168.702 83.7477C197.061 89.5041 219.398 111.842 225.154 140.2H215.274C209.837 117.183 191.719 99.0654 168.702 93.6284V83.7477ZM139.752 83.7478C111.394 89.5043 89.0564 111.842 83.3 140.2H93.1807C98.6177 117.183 116.735 99.0655 139.752 93.6285V83.7478ZM139.752 225.602C111.394 219.846 89.0564 197.508 83.3 169.15H93.1807C98.6177 192.167 116.735 210.284 139.752 215.722V225.602ZM215.274 169.15C209.837 192.167 191.719 210.285 168.702 215.722V225.602C197.061 219.846 219.398 197.508 225.154 169.15H215.274ZM154.227 169.15C162.222 169.15 168.702 162.669 168.702 154.675C168.702 146.681 162.222 140.2 154.227 140.2C146.233 140.2 139.752 146.681 139.752 154.675C139.752 162.669 146.233 169.15 154.227 169.15Z" fill="#0A0E12"/>
</svg>
